<svg width="741" height="948" viewBox="0 0 741 948" fill="none" xmlns="http://www.w3.org/2000/svg">
<path d="M105.857 842.254H-0.000205994V948.111H32.2172C72.8873 948.111 105.857 915.142 105.857 874.472V842.254Z" fill="#004491"/>
<rect width="105.857" height="105.857" transform="matrix(-1 0 0 1 317.571 842.254)" fill="#004491"/>
<path d="M529.286 842.254H423.429V948.111H455.646C496.316 948.111 529.286 915.142 529.286 874.472V842.254Z" fill="#004491"/>
<path d="M741 842.254H708.783C668.112 842.254 635.143 875.224 635.143 915.894V948.111H741V842.254Z" fill="#004491"/>
<path d="M211.714 736.397H105.857V842.254H138.075C178.745 842.254 211.714 809.285 211.714 768.614V736.397Z" fill="#004491"/>
<rect width="105.857" height="105.857" transform="matrix(-1 0 0 1 317.571 630.54)" fill="#004491"/>
<path d="M423.429 810.037C423.429 769.367 390.459 736.397 349.789 736.397H317.572V842.254H423.429V810.037Z" fill="#004491"/>
<path d="M529.286 630.54H497.068C456.398 630.54 423.429 663.51 423.429 704.18V736.397H529.286V630.54Z" fill="#004491"/>
<path d="M741 538.49H635.143V644.347H667.36C708.03 644.347 741 611.378 741 570.708V538.49Z" fill="#004491"/>
<path d="M211.714 524.683H105.857V556.9C105.857 597.57 138.827 630.54 179.497 630.54H211.714V524.683Z" fill="#004491"/>
<path d="M105.857 418.826H73.6395C32.9694 418.826 -0.000205994 451.795 -0.000205994 492.465V524.683H105.857V418.826Z" fill="#004491"/>
<path d="M635.143 736.397H602.926C562.256 736.397 529.286 769.367 529.286 810.037V842.254H635.143V736.397Z" fill="#004491"/>
<path d="M741 -0.000244141H708.783C668.112 -0.000244141 635.143 32.9694 635.143 73.6395V105.857H741V-0.000244141Z" fill="#004491"/>
</svg>
